# xmcd
#
# Track frame offsets: 
#        150
#        19819
#        41843
#        56922
#        74738
#        96727
#        115957
#        134957
#        149889
#        166883
#
# Disc length: 2557 seconds
#
# Revision: 5
# Processed by: cddbd v1.5.2PL0 Copyright (c) Steve Scherf et al.
# Submitted via: ExactAudioCopy v1.0b4
#
DISCID=af09fb0a
DTITLE=Snowy White's Blues Agency - Blues On Me
DYEAR=1989
DGENRE=Blues Rock
TTITLE0=I Can't Help Myself
TTITLE1=Blues On Me
TTITLE2=Out Of Order
TTITLE3=When You Broke Your Promise
TTITLE4=I Want Your Love
TTITLE5=Out Of My Dreams
TTITLE6=Addicted Man
TTITLE7=Open For Business
TTITLE8=Walking The Streets
TTITLE9=Land Of Plenty
EXTD=
EXTT0=
EXTT1=
EXTT2=
EXTT3=
EXTT4=
EXTT5=
EXTT6=
EXTT7=
EXTT8=
EXTT9=
PLAYORDER=
